<svg xmlns="http://www.w3.org/2000/svg" viewBox="6508.091796875 4954.60595703125 1203.71826171875 244.4248046875"> <path fill="transparent" fill-opacity="1" stroke="#c7290a" stroke-opacity="0.2" stroke-width="1" fill-rule="evenodd" id="tSvg460704192d" d="M 6509.0919 5045.285 C 6673.843 4977.8966 6673.843 4977.8966 6673.843 4977.8966 C 6771.028 4938.145 6887.362 4952.1342 6984.706 5015.278 C 6984.706 5015.278 6984.706 5015.278 6984.706 5015.278 C 7074.076 5073.249 7179.938 5090.055 7272.526 5060.97 C 7325.809 5044.232 7325.809 5044.232 7325.809 5044.232 C 7448.604 5005.659 7588.71 5026.225 7708.6900000000005 5100.436"></path> <path fill="transparent" fill-opacity="1" stroke="#c7290a" stroke-opacity="0.2" stroke-width="1" fill-rule="evenodd" id="tSvg18dc9de2e0" d="M 6509.4415 5061.245 C 6674.193 4993.857 6674.193 4993.857 6674.193 4993.857 C 6771.378 4954.105 6887.7119999999995 4968.0942 6985.056 5031.238 C 6985.056 5031.238 6985.056 5031.238 6985.056 5031.238 C 7074.426 5089.209 7180.2880000000005 5106.015 7272.876 5076.93 C 7326.159 5060.192 7326.159 5060.192 7326.159 5060.192 C 7448.954 5021.619 7589.0599999999995 5042.185 7709.04 5116.396"></path> <path fill="transparent" fill-opacity="1" stroke="#c7290a" stroke-opacity="0.2" stroke-width="1" fill-rule="evenodd" id="tSvgf40a1bc172" d="M 6509.8146 5078.535 C 6674.566 5011.147 6674.566 5011.147 6674.566 5011.147 C 6771.751 4971.395 6888.085 4985.384 6985.429 5048.528 C 6985.429 5048.528 6985.429 5048.528 6985.429 5048.528 C 7074.799 5106.499 7180.661 5123.305 7273.249 5094.22 C 7326.532 5077.482 7326.532 5077.482 7326.532 5077.482 C 7449.327 5038.909 7589.4400000000005 5059.475 7709.42 5133.686"></path> <path fill="transparent" fill-opacity="1" stroke="#c7290a" stroke-opacity="0.2" stroke-width="1" fill-rule="evenodd" id="tSvgc07f08f7fb" d="M 6510.215 5097.153 C 6674.967 5029.765 6674.967 5029.765 6674.967 5029.765 C 6772.151 4990.013 6888.485 5004.002 6985.829 5067.146 C 6985.829 5067.146 6985.829 5067.146 6985.829 5067.146 C 7075.199 5125.117 7181.061 5141.923 7273.649 5112.838 C 7326.932 5096.1 7326.932 5096.1 7326.932 5096.1 C 7449.727 5057.527 7589.84 5078.093 7709.82 5152.304"></path> <path fill="transparent" fill-opacity="1" stroke="#c7290a" stroke-opacity="0.2" stroke-width="1" fill-rule="evenodd" id="tSvgda79732f62" d="M 6510.5665 5113.114 C 6675.318 5045.726 6675.318 5045.726 6675.318 5045.726 C 6772.503 5005.974 6888.8369999999995 5019.963 6986.181 5083.107 C 6986.181 5083.107 6986.181 5083.107 6986.181 5083.107 C 7075.551 5141.0779999999995 7181.4130000000005 5157.884 7274.001 5128.799 C 7327.284 5112.061 7327.284 5112.061 7327.284 5112.061 C 7450.079 5073.488 7590.1900000000005 5094.054 7710.17 5168.265"></path> <path fill="transparent" fill-opacity="1" stroke="#c7290a" stroke-opacity="0.2" stroke-width="1" fill-rule="evenodd" id="tSvga38475bb67" d="M 6510.8615 5126.921 C 6675.613 5059.533 6675.613 5059.533 6675.613 5059.533 C 6772.798 5019.781 6889.132 5033.77 6986.476 5096.914 C 6986.476 5096.914 6986.476 5096.914 6986.476 5096.914 C 7075.846 5154.885 7181.708 5171.691 7274.296 5142.606 C 7327.579 5125.869 7327.579 5125.869 7327.579 5125.869 C 7450.374 5087.295 7590.48 5107.861 7710.46 5182.072"></path> <path fill="transparent" fill-opacity="1" stroke="#c7290a" stroke-opacity="0.2" stroke-width="1" fill-rule="evenodd" id="tSvg171dc1fd635" d="M 6511.2111 5142.881 C 6675.963 5075.492 6675.963 5075.492 6675.963 5075.492 C 6773.147 5035.741 6889.482 5049.73 6986.825 5112.873 C 6986.825 5112.873 6986.825 5112.873 6986.825 5112.873 C 7076.196 5170.845 7182.057 5187.651 7274.645 5158.566 C 7327.929 5141.8279999999995 7327.929 5141.8279999999995 7327.929 5141.8279999999995 C 7450.723 5103.254 7590.83 5123.821 7710.8099999999995 5198.031"></path> <defs> </defs> </svg>
