<?xml version="1.0" encoding="UTF-8"?>
<svg version="1.1" xmlns="http://www.w3.org/2000/svg" width="2168" height="439">
<path d="M0 0 C164.94909091 0 164.94909091 0 202.21484375 36.1484375 C218.17547179 53.12000743 221.74567147 73.86489439 221.13623047 96.32714844 C220.03089677 118.01387491 208.1133357 137.04791706 192.49267578 151.38330078 C174.35628164 167.31882059 150.47610862 175.8571573 127 180 C129.21891453 182.21891453 131.4809835 183.21398605 134.3059082 184.51025391 C170.77167083 201.44212903 188.9217179 250.34911705 205.0222168 284.5090332 C209.3695678 293.71920347 213.90943317 302.78790064 218.75 311.75 C219.26868652 312.71341309 219.78737305 313.67682617 220.32177734 314.66943359 C225.05324743 323.33152476 229.99423396 331.93387426 236.375 339.5 C238.58426112 342.12722944 239.90856057 343.7256817 241 347 C241.66 347.33 242.32 347.66 243 348 C243.66 348.33 244.32 348.66 245 349 C245.33 349.99 245.66 350.98 246 352 C239.18762024 352.30566556 232.37701964 352.51495093 225.55932617 352.65917969 C223.24355008 352.71932552 220.92822597 352.80107244 218.61401367 352.90527344 C198.33855253 353.79496887 198.33855253 353.79496887 193.59887695 349.55883789 C191.2533784 346.47176039 189.60211098 343.52240268 188 340 C187.1134222 338.58080537 186.21098914 337.17124728 185.28515625 335.77734375 C176.00861662 319.94389311 167.67185639 303.80593331 160.46704102 286.927948 C138.15705129 228.15631116 138.15705129 228.15631116 93.34985352 187.78857422 C81.68229473 183.87312332 69.86325765 183.51236361 57.6875 183.375 C55.31221788 183.33837936 52.93709404 183.29787807 50.56196594 183.25234985 C49.10078947 183.22530893 47.63949537 183.20387825 46.17814636 183.18881226 C41.22163692 183.11081846 41.22163692 183.11081846 39 182 C39 238.1 39 294.2 39 352 C26.13 352 13.26 352 0 352 C0 235.84 0 119.68 0 0 Z M39 6 C39 62.43 39 118.86 39 177 C100.3486053 179.27218638 100.3486053 179.27218638 152.9921875 152.06640625 C154.76597063 150.10736133 156.39838508 148.10187721 158 146 C158.58394531 145.23945313 159.16789062 144.47890625 159.76953125 143.6953125 C175.59931617 122.10610693 179.423866 95.8416074 175.68017578 69.77294922 C173.05328659 54.00808806 166.63368395 40.11617132 155 29 C154.39929687 28.37996094 153.79859375 27.75992188 153.1796875 27.12109375 C124.55737134 -0.57192644 72.35606028 6 39 6 Z " fill="#B40D0D" transform="translate(1246,49)"/>
<path d="M0 0 C14.30706867 12.284492 23.05047652 30.14214116 24.87109375 48.890625 C25.97533554 66.96003611 21.07109577 82.62942621 9.2109375 96.51171875 C8.48132813 97.33285156 7.75171875 98.15398437 7 99 C6.18789062 99.95519531 5.37578125 100.91039062 4.5390625 101.89453125 C-8.8074289 117.31481995 -25.08193443 127.57446247 -44 135 C-46.33945163 135.9863277 -48.66966064 136.99220764 -51 138 C-50.39341553 138.26514404 -49.78683105 138.53028809 -49.16186523 138.8034668 C-10.04651614 156.01891585 33.04306901 177.99652674 49.8515625 219.83203125 C51.32577043 223.89863884 52.43998101 227.711247 53 232 C53.13277344 232.97582031 53.26554687 233.95164062 53.40234375 234.95703125 C55.93321983 259.38425097 50.04667257 283.96595397 35.0078125 303.55078125 C14.72874227 328.28809066 -19.25094162 338.28003953 -49.9609375 341.59375 C-58.16443352 342.27066071 -66.39934299 342.19898766 -74.625 342.1875 C-75.92040207 342.18609512 -75.92040207 342.18609512 -77.24197388 342.18466187 C-115.26019936 342.09548423 -159.57139659 339.14962066 -189 312 C-189.64195312 311.43796875 -190.28390625 310.8759375 -190.9453125 310.296875 C-205.58331676 296.77477241 -210.79551748 277.79219184 -211.87451172 258.52685547 C-212.67781772 237.90866807 -205.02323331 219.99755631 -191.5625 204.75 C-190.0522497 203.15656896 -188.53138691 201.57312829 -187 200 C-186.25363281 199.19175781 -185.50726563 198.38351562 -184.73828125 197.55078125 C-165.38174984 177.1704333 -139.2080437 164.97122389 -113 156 C-114.00244751 155.45811035 -114.00244751 155.45811035 -115.02514648 154.90527344 C-128.92797532 147.35335509 -142.46882063 139.69405658 -155 130 C-155.90395508 129.30245605 -155.90395508 129.30245605 -156.82617188 128.59082031 C-174.86891877 114.47083931 -184.78081135 97.642507 -188.4609375 75.1875 C-188.74598357 72.78386826 -188.90969918 70.41849157 -189 68 C-189.03996094 67.0821875 -189.07992187 66.164375 -189.12109375 65.21875 C-189.57480459 44.93520656 -184.0392844 26.58083984 -171 11 C-169.85144531 9.54980469 -169.85144531 9.54980469 -168.6796875 8.0703125 C-151.73305495 -12.18391449 -122.88533371 -21.14333616 -97.57788086 -23.80151367 C-63.54947809 -26.42156211 -27.09475387 -22.3426701 0 0 Z M-138 3 C-138.63679688 3.54269531 -139.27359375 4.08539063 -139.9296875 4.64453125 C-150.00727874 13.84873125 -154.04448741 25.6912304 -155.27734375 38.9921875 C-156.02084538 60.94035555 -147.47312117 79.52014194 -132.7265625 95.3359375 C-116.50559662 111.18507608 -79.36708506 134.5926583 -55.875 135.0625 C-41.82689785 132.24061048 -27.6308792 117.74962987 -19.546875 106.51953125 C-5.45263834 83.56300942 -2.39968824 60.26838687 -8 34 C-12.57781806 16.18069727 -21.62563078 2.45030706 -37.421875 -6.9921875 C-68.7495031 -24.9343745 -111.00926505 -20.93429284 -138 3 Z M-116.6875 161.5625 C-117.40502441 161.93310547 -118.12254883 162.30371094 -118.86181641 162.68554688 C-143.8320054 175.77243479 -162.52698676 195.66006492 -171.25 222.625 C-178.40837278 246.04669339 -177.58065012 272.60916227 -166.19628906 294.45996094 C-155.6830164 313.56019104 -136.45996684 325.39437523 -115.88427734 331.53125 C-109.02016689 333.41544917 -102.081025 334.34730102 -95 335 C-93.84886719 335.11085938 -92.69773437 335.22171875 -91.51171875 335.3359375 C-62.34413848 337.78033268 -31.09676177 333.60208544 -7.90380859 314.00463867 C-2.08605468 308.75453848 2.31486517 302.91580264 6 296 C6.47050781 295.13890625 6.94101563 294.2778125 7.42578125 293.390625 C15.02837328 278.23029399 16.41577429 259.39541154 12.03515625 243.0546875 C0.14022549 207.95342013 -39.57953652 190.46802618 -70.37060547 175.16967773 C-78.36600531 171.23896303 -86.40806624 167.4153283 -94.5 163.6875 C-95.50264893 163.22529053 -96.50529785 162.76308105 -97.53833008 162.28686523 C-98.46411865 161.86606689 -99.38990723 161.44526855 -100.34375 161.01171875 C-101.15005859 160.64522217 -101.95636719 160.27872559 -102.78710938 159.90112305 C-108.55279863 157.55324584 -111.2556165 158.69339653 -116.6875 161.5625 Z " fill="#B40D0D" transform="translate(227,65)"/>
<path d="M0 0 C2.45065216 0.00315181 4.90008252 -0.02036353 7.35058594 -0.0456543 C18.12149725 -0.08898862 28.19082438 1.07667646 38.71777344 3.31567383 C39.6682959 3.50911377 40.61881836 3.70255371 41.59814453 3.90185547 C73.51924749 10.66307694 101.77060242 26.38876786 125.71777344 48.31567383 C126.66136719 49.17547852 127.60496094 50.0352832 128.57714844 50.92114258 C151.71705156 73.02443154 167.58461217 102.56501353 175.71777344 133.31567383 C175.9159668 134.06316895 176.11416016 134.81066406 176.31835938 135.58081055 C188.43508822 182.9136982 179.99961588 232.3850776 155.71777344 274.31567383 C143.4564903 294.54800982 127.68443367 311.2827461 108.71777344 325.31567383 C107.49574219 326.24766602 107.49574219 326.24766602 106.24902344 327.19848633 C69.45469762 354.29019883 20.66249434 366.48394368 -24.42895508 360.07983398 C-34.2452899 358.51640654 -43.87456501 356.56518011 -53.28222656 353.31567383 C-54.1977832 353.00291504 -54.1977832 353.00291504 -55.13183594 352.68383789 C-79.01535145 344.43120891 -100.38193377 332.59781318 -119.04003906 315.37036133 C-120.97328969 313.59877626 -122.9451199 311.91785041 -124.96972656 310.25317383 C-128.83233699 306.94749793 -132.0646575 303.24319233 -135.28222656 299.31567383 C-136.02214844 298.42493164 -136.76207031 297.53418945 -137.52441406 296.61645508 C-169.16504762 257.14147935 -181.79706284 207.22164077 -176.51025391 157.20288086 C-170.81435196 111.6277871 -147.36739817 68.02456198 -111.21972656 39.44067383 C-86.83626379 20.73876164 -59.41695396 8.19946277 -29.28222656 2.31567383 C-28.33669922 2.12803467 -27.39117188 1.94039551 -26.41699219 1.74707031 C-17.59937529 0.18451628 -8.92663523 -0.02390115 0 0 Z M-86.96972656 45.06567383 C-107.8493983 69.40563015 -120.45265749 98.60840863 -126.53222656 129.94067383 C-126.68320801 130.71362793 -126.83418945 131.48658203 -126.98974609 132.28295898 C-129.99235218 148.8125255 -130.65450875 165.17692861 -130.59472656 181.94067383 C-130.59290375 183.00115936 -130.59108093 184.0616449 -130.58920288 185.15426636 C-130.54502037 200.41191178 -130.19707108 215.29498238 -127.28222656 230.31567383 C-127.11062012 231.25443359 -126.93901367 232.19319336 -126.76220703 233.16040039 C-121.90648173 259.32664127 -113.42256321 285.80620478 -97.28222656 307.31567383 C-96.67121094 308.14711914 -96.06019531 308.97856445 -95.43066406 309.83520508 C-76.77984843 334.20406913 -50.77727913 349.98101674 -20.35522461 354.43969727 C13.17769327 358.75200988 47.0556955 351.36684617 74.12792969 330.59008789 C110.59496085 301.35822323 128.72489925 257.89756414 134.07714844 212.25073242 C139.81911058 157.26631813 133.50739148 93.89303534 97.71777344 49.31567383 C79.88341712 27.85814011 56.47252246 12.17532162 28.71777344 7.31567383 C27.60015625 7.11200195 26.48253906 6.90833008 25.33105469 6.69848633 C-16.92575216 -0.21024133 -57.77790696 14.07254412 -86.96972656 45.06567383 Z " fill="#B40D0D" transform="translate(1018.2822265625,44.684326171875)"/>
<path d="M0 0 C1.01394836 0.00182281 2.02789673 0.00364563 3.0725708 0.00552368 C20.2120148 0.05722866 36.9478419 0.92078541 53.9375 3.3125 C54.58487122 3.4020697 55.23224243 3.4916394 55.89923096 3.58392334 C106.17389694 10.54889694 106.17389694 10.54889694 109.9375 14.3125 C110.03175595 16.45993549 110.05492648 18.61051026 110.05102539 20.76000977 C110.05117142 21.43315216 110.05131744 22.10629456 110.0514679 22.79983521 C110.05076878 25.03455784 110.04297652 27.2691981 110.03515625 29.50390625 C110.03329206 31.04947362 110.03186816 32.59504157 110.03086853 34.14060974 C110.0270434 38.21607077 110.01721317 42.29149637 110.00616455 46.36694336 C109.99595032 50.52261882 109.99137089 54.67829999 109.98632812 58.83398438 C109.97559089 66.99350587 109.95851454 75.15299853 109.9375 83.3125 C106.86730333 80.46054367 105.72915371 77.7272611 104.1875 73.8125 C99.77663302 63.08096335 93.36734889 54.17799699 85.9375 45.3125 C85.09058594 44.26255859 85.09058594 44.26255859 84.2265625 43.19140625 C65.61762489 20.78205181 34.92715627 9.7719816 6.75 6.6875 C-18.739695 4.70175889 -48.57808131 6.9522852 -68.94799805 24.16967773 C-80.41654508 34.46196353 -87.94862311 48.43642471 -89.28540039 63.88916016 C-90.23217112 86.14951895 -84.71095355 101.35263713 -69.56591797 117.95288086 C-65.16617301 122.55733881 -60.41944869 126.08071661 -55.0625 129.5 C-54.19947266 130.05461914 -53.33644531 130.60923828 -52.44726562 131.18066406 C-32.10132813 144.01884868 -10.09373247 153.5678514 12.05551147 162.78915405 C44.47765088 176.29192872 75.43814572 189.60178555 100.9375 214.3125 C101.61683594 214.95445312 102.29617187 215.59640625 102.99609375 216.2578125 C108.78339032 222.21266999 111.78043455 229.76014342 114.9375 237.3125 C115.27910156 238.11816406 115.62070313 238.92382812 115.97265625 239.75390625 C123.40374206 259.43321389 120.10579357 283.16957281 112.37890625 302.15234375 C106.62783903 314.76105211 98.81263816 325.68476342 87.9375 334.3125 C86.66326172 335.35857422 86.66326172 335.35857422 85.36328125 336.42578125 C47.31436311 366.48079298 -2.49327827 364.29504129 -48.26220703 358.93798828 C-61.66646148 357.23955334 -74.86924849 354.6231894 -88.0625 351.75 C-88.74163452 351.60229156 -89.42076904 351.45458313 -90.1204834 351.30239868 C-94.44676456 350.35447089 -98.75826507 349.35578223 -103.0625 348.3125 C-104.59003906 347.94535889 -104.59003906 347.94535889 -106.1484375 347.57080078 C-107.04820313 347.33216309 -107.94796875 347.09352539 -108.875 346.84765625 C-109.64457031 346.64664307 -110.41414063 346.44562988 -111.20703125 346.23852539 C-113.74928963 344.96973775 -114.06797898 343.97704121 -115.0625 341.3125 C-115.24223769 338.79681091 -115.31550848 336.39537004 -115.28955078 333.88183594 C-115.28984283 333.13998047 -115.29013489 332.398125 -115.29043579 331.63378906 C-115.28904533 329.18803099 -115.27349765 326.74257968 -115.2578125 324.296875 C-115.25408136 322.59865485 -115.25123486 320.90043255 -115.24923706 319.20220947 C-115.24160857 314.73712193 -115.22196681 310.27216494 -115.1998291 305.80712891 C-115.17935379 301.2490414 -115.17023174 296.69093276 -115.16015625 292.1328125 C-115.13872018 283.19265104 -115.10459368 274.25258639 -115.0625 265.3125 C-112.4232359 266.63213205 -112.29287985 267.7611134 -111.21484375 270.4765625 C-110.86172119 271.34410156 -110.50859863 272.21164062 -110.14477539 273.10546875 C-109.76699951 274.04003906 -109.38922363 274.97460938 -109 275.9375 C-96.60376828 305.62618621 -75.49801474 332.02685853 -45.28295898 344.8359375 C-15.22550733 356.86909659 21.99108307 359.60198733 52.36328125 346.9921875 C57.36699147 344.64071713 61.6369706 341.76143942 65.9375 338.3125 C66.845 337.673125 67.7525 337.03375 68.6875 336.375 C80.33976596 325.6937562 86.38897835 309.63897722 87.28515625 294.16796875 C88.0759722 272.90133131 82.16514214 257.28664911 67.9375 241.3125 C65.88137505 239.47395441 63.85807662 237.74958177 61.6875 236.0625 C61.08470215 235.59287842 60.4819043 235.12325684 59.86083984 234.6394043 C47.92030453 225.56453659 34.45091398 218.71569152 20.9375 212.3125 C20.07833984 211.90418945 19.21917969 211.49587891 18.33398438 211.07519531 C5.62671809 205.06885256 -7.22720622 199.54779127 -20.26367188 194.29760742 C-100.94649981 161.72801917 -100.94649981 161.72801917 -117.0625 126.3125 C-125.00295688 106.65427231 -126.14107175 84.09515561 -118.20068359 64.14746094 C-107.48764875 39.55706271 -88.34982217 20.4306958 -63.37109375 10.36328125 C-42.34487802 2.25696487 -22.37447472 -0.08342033 0 0 Z " fill="#B40D0D" transform="translate(2022.0625,44.6875)"/>
<path d="M0 0 C1.00196411 0.00398804 2.00392822 0.00797607 3.03625488 0.01208496 C20.08758489 0.09130529 36.78385947 1.0234053 53.6875 3.375 C54.79351562 3.52485352 55.89953125 3.67470703 57.0390625 3.82910156 C69.46063744 5.5417953 81.80124951 7.69207279 94.125 10 C95.7970752 10.3091333 95.7970752 10.3091333 97.50292969 10.62451172 C98.53192383 10.82318848 99.56091797 11.02186523 100.62109375 11.2265625 C101.52915771 11.40010254 102.43722168 11.57364258 103.37280273 11.75244141 C105.6875 12.375 105.6875 12.375 108.6875 14.375 C109.04826355 17.23501587 109.04826355 17.23501587 109.02807617 20.93603516 C109.02851425 21.60932358 109.02895233 22.282612 109.02940369 22.9763031 C109.02731056 25.20584938 109.0039562 27.43464731 108.98046875 29.6640625 C108.97487463 31.20819691 108.97060366 32.75233664 108.96760559 34.29647827 C108.95614226 38.36383727 108.92666262 42.43087571 108.89349365 46.49810791 C108.86282462 50.64713199 108.84910706 54.79620778 108.83398438 58.9453125 C108.80179405 67.0886889 108.75058008 75.23180459 108.6875 83.375 C105.97530441 80.66280441 104.9388373 77.42571149 103.5 73.9375 C91.44469174 45.65790079 69.04749487 26.71287593 41.2265625 14.90625 C28.10294016 9.88929414 13.74463201 6.80608538 -0.3125 6.375 C-1.44429688 6.33503906 -2.57609375 6.29507813 -3.7421875 6.25390625 C-28.23203949 5.81381377 -53.84788118 9.58944152 -72.16796875 27.19921875 C-72.87566406 27.91722656 -73.58335937 28.63523437 -74.3125 29.375 C-75.17294922 30.21998047 -75.17294922 30.21998047 -76.05078125 31.08203125 C-86.99626387 42.70630349 -90.3125 58.92920807 -90.3125 74.375 C-89.33501149 89.78571732 -84.61225193 99.86791127 -75.45214844 111.87451172 C-74.55336866 113.05786659 -73.68167239 114.26179169 -72.8203125 115.47265625 C-64.80413738 126.00322171 -50.62352974 132.90550252 -39.3125 139.375 C-38.24773437 139.99632812 -37.18296875 140.61765625 -36.0859375 141.2578125 C-20.64290885 149.90156858 -3.9375992 156.38750746 12.390625 163.1640625 C97.55659038 198.56926256 97.55659038 198.56926256 113.6875 235.375 C121.79640768 256.63835792 120.69128031 280.33511603 112.0625 301.31640625 C108.02168364 310.30492674 103.19318606 317.96125451 96.6875 325.375 C95.81544922 326.37273437 95.81544922 326.37273437 94.92578125 327.390625 C74.45863534 349.23408658 44.16599412 360.56214352 14.68994141 361.52294922 C-27.20678261 362.59580289 -73.72905561 360.33781403 -113.3125 345.375 C-115.77734313 342.91015687 -115.54731105 341.53919816 -115.56134033 338.17617798 C-115.55414978 337.45401093 -115.54695923 336.73184387 -115.53955078 335.98779297 C-115.53984283 335.22672241 -115.54013489 334.46565186 -115.54043579 333.68151855 C-115.53903981 331.15995984 -115.52346618 328.63869475 -115.5078125 326.1171875 C-115.50408332 324.37126833 -115.5012359 322.62534706 -115.49923706 320.87942505 C-115.49159311 316.2795028 -115.47193813 311.67970643 -115.4498291 307.07983398 C-115.42938704 302.3878754 -115.42023886 297.69589651 -115.41015625 293.00390625 C-115.38869292 283.79421546 -115.35454783 274.58461819 -115.3125 265.375 C-112.993833 268.36635694 -111.53717967 271.01834116 -110.1875 274.5625 C-100.38198845 298.59332085 -85.7358007 319.48935631 -64.3125 334.375 C-62.78689453 335.44041016 -62.78689453 335.44041016 -61.23046875 336.52734375 C-34.49244283 354.04999973 1.92247655 358.95023242 33.01782227 352.78759766 C51.10777857 348.73635478 65.92891276 341.29125982 77 326.125 C86.1445016 311.48861643 89.227663 292.1779204 86 275.265625 C80.54063798 252.9732301 65.53581633 237.80549724 46.56982422 226.08886719 C26.50318812 214.15698633 5.16841109 205.03258969 -16.37652588 196.17315674 C-74.18101126 172.34172273 -74.18101126 172.34172273 -97.54516602 151.90380859 C-99.18463224 150.48561029 -100.85762072 149.12367883 -102.546875 147.765625 C-114.0414404 137.82964474 -122.05161802 120.39677343 -123.62817383 105.36523438 C-123.78554397 102.19474058 -123.83132092 99.04930238 -123.8125 95.875 C-123.80677979 94.74223633 -123.80105957 93.60947266 -123.79516602 92.44238281 C-123.30084756 68.8682191 -113.57269946 49.30710464 -97.625 32.25 C-84.28332424 19.60209138 -68.89227864 11.49923433 -51.4375 6.0625 C-50.70893799 5.83199951 -49.98037598 5.60149902 -49.22973633 5.36401367 C-33.07587068 0.66304369 -16.71629789 -0.13561085 0 0 Z " fill="#B40D0D" transform="translate(444.3125,44.625)"/>
<path d="M0 0 C75.57 0 151.14 0 229 0 C229 14.85 229 29.7 229 45 C224.54028775 42.451593 220.94346351 40.30871208 217 37.25 C187.82818775 15.90477152 150.97816651 8.59226391 115.5859375 8.48828125 C113.3920494 8.47139172 111.19817073 8.45323592 109.00430298 8.43388367 C103.29336495 8.3868411 97.58246512 8.3567381 91.87139893 8.33044434 C86.01835587 8.30040515 80.16544399 8.25395652 74.3125 8.20898438 C62.87506928 8.1234732 51.43761117 8.05589879 40 8 C40.01252808 8.88581253 40.02505615 9.77162506 40.03796387 10.6842804 C40.19992908 22.2269183 40.35320244 33.76965925 40.5 45.3125 C40.51187725 46.2459877 40.5237545 47.1794754 40.53599167 48.14125061 C41.0362989 87.76507112 41.07679874 127.37185165 41 167 C68.39 167 95.78 167 124 167 C124 168.98 124 170.96 124 173 C96.61 173 69.22 173 41 173 C41 229.43 41 285.86 41 344 C49.58 344 58.16 344 67 344 C72.41167365 344.06712271 77.81991052 344.14482321 83.23046875 344.25390625 C84.61468319 344.27910694 85.9989049 344.30391106 87.38313293 344.32835388 C93.09740687 344.42957829 98.81158839 344.53481178 104.52563477 344.64819336 C108.08280906 344.71850409 111.64005362 344.7824821 115.19741249 344.84269524 C117.15075365 344.87748643 119.10397127 344.91901533 121.05717468 344.96083069 C132.91707469 345.15678621 144.827578 344.88844105 156.4375 342.25 C157.23115967 342.0751709 158.02481934 341.9003418 158.8425293 341.72021484 C191.76303699 334.2366387 218.45977905 318.83001166 238 291 C238.33 291 238.66 291 239 291 C239 311.13 239 331.26 239 352 C160.13 352 81.26 352 0 352 C0 235.84 0 119.68 0 0 Z " fill="#B40D0D" transform="translate(1631,49)"/>
<path d="M0 0 C7.21468352 0.06177952 14.42938271 0.12163106 21.64408332 0.18137598 C36.41724542 0.30375291 51.19038799 0.42837871 65.96351761 0.55461836 C65.96351761 2.20461836 65.96351761 3.85461836 65.96351761 5.55461836 C25.04351761 5.55461836 -15.87648239 5.55461836 -58.03648239 5.55461836 C-58.03648239 119.73461836 -58.03648239 233.91461836 -58.03648239 351.55461836 C-70.90648239 351.55461836 -83.77648239 351.55461836 -97.03648239 351.55461836 C-97.03648239 237.37461836 -97.03648239 123.19461836 -97.03648239 5.55461836 C-138.28648239 5.55461836 -179.53648239 5.55461836 -222.03648239 5.55461836 C-222.03648239 3.90461836 -222.03648239 2.25461836 -222.03648239 0.55461836 C-206.41208072 0.42223565 -190.78766405 0.2917902 -175.16322857 0.16346693 C-167.90360575 0.10380166 -160.64398865 0.04356041 -153.38438278 -0.01813555 C-102.24830194 -0.45203597 -51.13610013 -0.43830649 0 0 Z " fill="#B40D0D" transform="translate(801.0364823937416,49.44538164138794)"/>
<path d="M0 0 C12.87 0 25.74 0 39 0 C39 116.16 39 232.32 39 352 C25.8 352 12.6 352 -1 352 C-1.02258351 307.30169722 -1.04049724 262.60339581 -1.05106533 217.90508846 C-1.05231611 212.63390987 -1.05361042 207.3627313 -1.05493164 202.09155273 C-1.05519395 201.04210926 -1.05545626 199.99266579 -1.05572652 198.91142099 C-1.06008364 181.89543041 -1.06797142 164.87944318 -1.0771528 147.86345459 C-1.08648818 130.41718852 -1.09205536 112.97092422 -1.09408849 95.52465576 C-1.09546396 84.75023861 -1.09981584 73.97583095 -1.10791647 63.20141672 C-1.1131825 55.8235783 -1.11480462 48.44574483 -1.11350138 41.06790466 C-1.11285777 36.80458827 -1.11387802 32.54128854 -1.11920547 28.27797508 C-1.12403921 24.38154004 -1.12433882 20.48513299 -1.12089889 16.58869671 C-1.12047318 15.17280616 -1.12176913 13.75691392 -1.12488318 12.34102673 C-1.12884687 10.4289368 -1.12615649 8.51683642 -1.12304783 6.60474491 C-1.12342755 5.53886994 -1.12380727 4.47299498 -1.1241985 3.37482077 C-1 1 -1 1 0 0 Z " fill="#B40D0D" transform="translate(1530,49)"/>
</svg>
